<svg width="18" height="18" viewBox="0 0 18 18" fill="none" xmlns="http://www.w3.org/2000/svg">
<path fill-rule="evenodd" clip-rule="evenodd" d="M8.99998 0C4.03414 0 -2.17357e-05 4.03417 -2.17357e-05 9C-0.0020175 9.14112 0.0721251 9.27238 0.194015 9.34352C0.315906 9.41466 0.466659 9.41466 0.58855 9.34352C0.71044 9.27238 0.784583 9.14112 0.782587 9C0.782587 4.45714 4.45712 0.782609 8.99998 0.782609C11.794 0.782609 14.2544 2.17673 15.7393 4.30435H13.6956C13.5545 4.30235 13.4233 4.37649 13.3521 4.49838C13.281 4.62028 13.281 4.77103 13.3521 4.89292C13.4233 5.01481 13.5545 5.08895 13.6956 5.08696H17.2174V1.56522C17.2188 1.45945 17.1774 1.3576 17.1025 1.28287C17.0276 1.20815 16.9257 1.16691 16.82 1.16856C16.6041 1.17194 16.4318 1.3494 16.4348 1.56522V3.93368C14.8144 1.55988 12.088 0 8.99998 0ZM8.99386 3.12508C8.77805 3.12846 8.60572 3.30592 8.60867 3.52174V4.34944C7.57556 4.45936 6.92293 4.95156 6.61012 5.47291C6.25743 6.06073 6.26085 6.65217 6.26085 6.65217C6.26085 6.84783 6.26367 7.37359 6.63228 7.86506C7.00089 8.35654 7.69928 8.78857 8.93578 8.99465C10.3416 9.22896 10.9042 9.67293 11.146 10.0363C11.3583 10.3553 11.3534 10.621 11.349 10.8586C11.3484 10.8918 11.3478 10.9244 11.3478 10.9565C11.3478 10.9565 11.3441 11.4444 11.0589 11.9333C10.7767 12.417 10.2633 12.899 9.03437 12.9092H9.03284C9.01122 12.9074 8.9895 12.9074 8.96788 12.9092C7.75553 12.8981 7.24604 12.3453 6.95327 11.7598C6.65755 11.1683 6.65215 10.5652 6.65215 10.5652C6.65415 10.4241 6.58001 10.2928 6.45812 10.2217C6.33623 10.1506 6.18547 10.1506 6.06358 10.2217C5.94169 10.2928 5.86755 10.4241 5.86954 10.5652C5.86954 10.5652 5.86415 11.3317 6.25321 12.1098C6.60448 12.8124 7.36549 13.5076 8.60867 13.6422V14.4783C8.60668 14.6194 8.68082 14.7506 8.80271 14.8218C8.9246 14.8929 9.07535 14.8929 9.19724 14.8218C9.31914 14.7506 9.39328 14.6194 9.39128 14.4783V13.649C10.6174 13.5339 11.3742 12.9453 11.7345 12.3276C12.1341 11.6426 12.1304 10.9565 12.1304 10.9565C12.1304 10.9449 12.1309 10.9293 12.1315 10.9099C12.1376 10.7139 12.1555 10.1401 11.798 9.60301C11.4051 9.01281 10.5978 8.47834 9.06418 8.22274C7.95286 8.03752 7.47733 7.68694 7.25898 7.39581C7.04337 7.10833 7.04342 6.85428 7.04346 6.65958L7.04346 6.65217C7.04346 6.65217 7.04686 6.26536 7.28114 5.87492C7.51334 5.48792 7.9348 5.09848 8.97934 5.09154C8.99334 5.0923 9.00738 5.0923 9.02138 5.09154C10.0652 5.09872 10.4867 5.48804 10.7188 5.87492C10.9531 6.26536 10.9565 6.65217 10.9565 6.65217C10.9545 6.79329 11.0286 6.92455 11.1505 6.9957C11.2724 7.06684 11.4232 7.06684 11.5451 6.9957C11.667 6.92455 11.7411 6.79329 11.7391 6.65217C11.7391 6.65217 11.7425 6.06073 11.3898 5.47291C11.077 4.95156 10.4244 4.45936 9.39128 4.34944V3.52174C9.39273 3.41597 9.3513 3.31412 9.27643 3.23939C9.20156 3.16467 9.09963 3.12343 8.99386 3.12508ZM17.2174 9C17.2144 8.78418 17.3867 8.60672 17.6026 8.60335C17.7083 8.60169 17.8103 8.64293 17.8851 8.71765C17.96 8.79238 18.0014 8.89423 18 9C18 13.9658 13.9658 18 8.99998 18C5.91198 18 3.18553 16.4401 1.5652 14.0663V16.4348C1.56719 16.5759 1.49305 16.7072 1.37116 16.7783C1.24927 16.8494 1.09851 16.8494 0.976624 16.7783C0.854734 16.7072 0.780591 16.5759 0.782587 16.4348V12.913H4.30433C4.44544 12.911 4.57671 12.9852 4.64785 13.1071C4.71899 13.229 4.71899 13.3797 4.64785 13.5016C4.57671 13.6235 4.44544 13.6976 4.30433 13.6957H2.26068C3.74557 15.8233 6.20593 17.2174 8.99998 17.2174C13.5428 17.2174 17.2174 13.5429 17.2174 9Z" fill="currentColor"/>
</svg>
