<svg xmlns="http://www.w3.org/2000/svg" xmlns:xlink="http://www.w3.org/1999/xlink"><symbol id="icon__exchange" viewBox="0 0 18 18"><g fill="none"><path fill-rule="evenodd" clip-rule="evenodd" d="M9 0C4.034 0 0 4.034 0 9a.391.391 0 10.783 0A8.212 8.212 0 019 .783a8.2 8.2 0 016.74 3.521h-2.044a.391.391 0 100 .783h3.521V1.565a.391.391 0 10-.782 0v2.369A8.99 8.99 0 009 0zm-.006 3.125a.391.391 0 00-.385.397v.827c-1.033.11-1.686.603-1.999 1.124-.353.588-.35 1.18-.35 1.18 0 .195.004.72.372 1.212.369.492 1.067.924 2.304 1.13 1.406.234 1.968.678 2.21 1.041.212.32.207.585.203.823l-.001.098s-.004.487-.29.976c-.281.484-.795.966-2.024.976h-.001a.391.391 0 00-.065 0c-1.212-.01-1.722-.564-2.015-1.15-.295-.59-.3-1.194-.3-1.194a.391.391 0 10-.783 0s-.006.767.383 1.545c.351.702 1.112 1.398 2.356 1.532v.836a.391.391 0 10.782 0v-.829c1.226-.115 1.983-.704 2.344-1.321.4-.685.395-1.371.395-1.371 0-.012 0-.028.002-.047.006-.196.024-.77-.334-1.307-.393-.59-1.2-1.125-2.734-1.38-1.111-.185-1.587-.536-1.805-.827-.216-.288-.216-.542-.216-.736v-.008s.004-.387.238-.777c.232-.387.654-.777 1.698-.783h.042c1.044.007 1.466.396 1.698.783a1.7 1.7 0 01.238.777.391.391 0 10.782 0s.003-.591-.35-1.18c-.312-.52-.965-1.013-1.998-1.123v-.827a.391.391 0 00-.397-.397zM17.217 9A.391.391 0 1118 9c0 4.966-4.034 9-9 9a8.99 8.99 0 01-7.435-3.934v2.369a.391.391 0 11-.782 0v-3.522h3.521a.391.391 0 110 .783H2.261A8.2 8.2 0 009 17.217 8.212 8.212 0 0017.217 9z" fill="currentColor"/></g></symbol><symbol id="icon__menu" viewBox="0 0 18 12"><g fill="none"><path fill-rule="evenodd" clip-rule="evenodd" d="M0 12h18v-2H0v2zm0-5h18V5H0v2zm0-7v2h18V0H0z" fill="currentColor"/></g></symbol></svg>